<svg viewBox="0 0 340 340" xmlns="http://www.w3.org/2000/svg"><path d="M211.9 282.837a3.459 3.459 0 0 0 4.718-1.308c.121-.214.344-.612.463-.829a3.462 3.462 0 0 0-6.069-3.332c-.107.195-.309.556-.419.751a3.461 3.461 0 0 0 1.307 4.718Z" fill="#830303" class="fill-000000"></path><path d="M246.337 238.539a130.826 130.826 0 0 0-14.026-39.1 3.426 3.426 0 0 0-.507-.9 136.917 136.917 0 0 0-14.904-21.487 178.131 178.131 0 0 1-15.524-23.562 3.462 3.462 0 0 0-6.078 3.315 169.69 169.69 0 0 0 6.086 10.252 30.886 30.886 0 0 0-16.932 5.811c-.082-.132-.166-.262-.248-.395a3.462 3.462 0 1 0-5.893 3.634 202.253 202.253 0 0 0 14.9 20.766c.251.314 18.567 23.544 22.591 53.377a45.887 45.887 0 0 1-.981 17.578 3.462 3.462 0 1 0 6.708 1.715c.379-1.482.682-2.978.929-4.482 4.95 3.236 12.674 9.647 14.755 19.083a56.659 56.659 0 0 1-23.556 28.579c1.143-5.914 1.242-14.525-2.962-25.311a3.493 3.493 0 0 0-5.785-1.069 40.409 40.409 0 0 1-33.751 13.095q-.781-.069-1.572-.163a53.68 53.68 0 0 1-38.5-23.469 52.665 52.665 0 0 1-4.1-7.389c-.013-.033-.028-.064-.042-.1a50.781 50.781 0 0 1-2.368-35.248c3.629-12.621 11.5-24.39 23.321-34.919a248.352 248.352 0 0 0 23.417-23 75.982 75.982 0 0 0 15.185-26.462h.441a12.846 12.846 0 0 0 9.44-21.582 12.816 12.816 0 0 0 .8-19.5 12.8 12.8 0 0 0 0-18.811 12.818 12.818 0 0 0-.8-19.5c6.847-14.234 20.75-24.187 28.669-28.956a9.67 9.67 0 0 0 .811-16.034l-3.241-2.423a15.3 15.3 0 0 0-16.032-1.542A68.455 68.455 0 0 0 190.5 31.551V13.492a3.461 3.461 0 0 0-3.461-3.462 3.462 3.462 0 0 0-3.462 3.46v17.55a47.109 47.109 0 0 1-15.09-10.271v-7.278a3.462 3.462 0 0 0-6.923 0V66.55a12.837 12.837 0 0 0-8.111 22.242 12.8 12.8 0 0 0 0 18.811 12.8 12.8 0 0 0-.688 18.12 12.83 12.83 0 0 0 1.429 21.17 89.688 89.688 0 0 1-6.4 8.8c-5.8 7.093-13.083 15.039-21.663 23.618-.919.923-22.607 22.956-31.59 54.236a76.126 76.126 0 0 0-2.564 28.881 3.437 3.437 0 0 0 .1.849 72.561 72.561 0 0 0 19.806 42.3c.039.045.08.086.122.128q1.95 2 4.07 3.853c11.471 9.988 25.82 16.331 42.772 18.978.025 0 .051.01.077.013a123.514 123.514 0 0 0 18.987 1.415h.3a80.454 80.454 0 0 0 29.272-6.305 65.055 65.055 0 0 0 36.471-37.783c.02-.044.032-.091.05-.136a79.175 79.175 0 0 0 2.9-9.567c1.533-6.482 2.561-19.757-.308-36.21a3.418 3.418 0 0 0-.259-1.424Zm-75.8 67.8c.135.012.269.015.4.027-2.235 10.4-9.495 14.226-11.816 15.2-13.675-2.253-25.425-7.088-35.1-14.469a33.978 33.978 0 0 0 20.418-9.229 61.611 61.611 0 0 0 24.309 8.288q.908.101 1.792.179Zm-31.982-12.478c-8.81 7.5-19.149 6.7-22.346 6.221a65.1 65.1 0 0 1-15.958-30.084 40.192 40.192 0 0 0 17.415 3.528 59.68 59.68 0 0 0 4.042-.16 58.084 58.084 0 0 0 3.6 6.27 59.57 59.57 0 0 0 13.25 14.221Zm4.806-100.936a112.687 112.687 0 0 0-3.853 3.613 52.04 52.04 0 0 0-4.622-16.231c5.81-5.951 10.975-11.584 15.43-16.825a37.942 37.942 0 0 1 5.588 17.856c-6.904 6.812-12.411 11.473-12.54 11.583Zm22.757-22.346c-1.338 1.518-2.693 3-4.039 4.434a43.717 43.717 0 0 0-7.186-17.117 88.718 88.718 0 0 0 6.312-9.2h17.981a69.048 69.048 0 0 1-13.065 21.879Zm-5.4-40.7h16.016a43.5 43.5 0 0 0-3.341 11.888h-12.675a5.944 5.944 0 1 1 0-11.888Zm26.222 11.888h-6.55a32.269 32.269 0 0 1 4.162-11.888h2.388a5.944 5.944 0 1 1 0 11.888Zm7.433-24.755a5.951 5.951 0 0 1-5.944 5.944h-18.814a21.681 21.681 0 0 1 5.84-11.888h12.974a5.951 5.951 0 0 1 5.944 5.941Zm-10.6-12.868a35.457 35.457 0 0 1 5.588-11.808 5.94 5.94 0 0 1-.927 11.808ZM173.385 85.33a59.1 59.1 0 0 1 6.722-11.889h8.322a5.945 5.945 0 0 1 0 11.889Zm-4.9-32.845a49.07 49.07 0 0 0 15.084 8.339v5.694h-15.08Zm41.186-25.945a8.523 8.523 0 0 1 8.808.883l3.242 2.424a2.746 2.746 0 0 1-.238 4.558 101.324 101.324 0 0 0-15.943 11.788 37.927 37.927 0 0 1 .11-17.432 58.122 58.122 0 0 1 4.021-2.221Zm-11.911 7.845a46.848 46.848 0 0 0 2.146 17.491 62.274 62.274 0 0 0-9.406 13.656V41.424a69.59 69.59 0 0 1 7.26-7.039ZM183.577 38.4v15.056a47.143 47.143 0 0 1-15.085-10.269V30.063a49.075 49.075 0 0 0 15.085 8.337Zm-27.314 40.985a5.951 5.951 0 0 1 5.944-5.944h9.542a68.4 68.4 0 0 0-5.826 11.889h-3.716a5.951 5.951 0 0 1-5.944-5.945Zm0 18.812a5.951 5.951 0 0 1 5.944-5.944h18.976a40.484 40.484 0 0 0-4.5 11.888h-14.476a5.95 5.95 0 0 1-5.944-5.941Zm10.5 12.868a28.35 28.35 0 0 0-4.109 11.888h-.448a5.944 5.944 0 1 1 0-11.888Zm-37.1 74.6a43.153 43.153 0 0 1 3.146 18.107 78.116 78.116 0 0 0-12.507 20.536 40.854 40.854 0 0 0-9.569-11.785 142.232 142.232 0 0 1 18.933-26.853ZM101.2 235.46a109.93 109.93 0 0 1 6.293-16.534 32.793 32.793 0 0 1 9.5 15.951 58.442 58.442 0 0 0 1.872 31.708c-12.32.32-18.223-3.973-20.07-5.682a69.235 69.235 0 0 1 2.405-25.443Zm76.78 87.585q-4.294 0-8.389-.278a28.573 28.573 0 0 0 8.389-16.347 47.029 47.029 0 0 0 27.936-11.426c3.3 12.039.308 19.766-.909 22.2a74.192 74.192 0 0 1-27.024 5.851Zm37.86-99.51a135.19 135.19 0 0 0-9.778-19.938c4.549-1.407 12.658-3.029 20.56-.186a124.255 124.255 0 0 1 10.578 26.052 36.1 36.1 0 0 0-21.357-5.928Zm-9.688-49.381q2.537 3.593 5.279 7.15c.015.019.034.031.048.049s.029.046.047.068a132.607 132.607 0 0 1 10.2 13.763 43.612 43.612 0 0 0-19.492 2.377c-2.03-3-3.427-4.767-3.632-5.024l-.023-.022c-.007-.008-.011-.02-.019-.029-.062-.074-5.016-6.041-10.328-13.822a24.529 24.529 0 0 1 17.923-4.51Zm16.98 83.219a54.137 54.137 0 0 0-.477-8.048 108.668 108.668 0 0 0-4.346-18.868 28.489 28.489 0 0 1 21.576 10.872c2.48 14.338 1.785 25.989.506 32.245-5.091-8.737-13.372-14.062-17.256-16.201Z" fill="#830303" class="fill-000000"></path></svg>